<svg width="900" height="240" viewBox="0 0 900 240" fill="none" xmlns="http://www.w3.org/2000/svg" role="img" aria-label="macleanup">
  <title>macleanup</title>
  <defs>
    <linearGradient id="bgw" x1="24" y1="24" x2="216" y2="216" gradientUnits="userSpaceOnUse">
      <stop offset="0" stop-color="#6E56F7"/>
      <stop offset="0.5" stop-color="#4F8DF0"/>
      <stop offset="1" stop-color="#19D3C5"/>
    </linearGradient>
    <linearGradient id="txt" x1="270" y1="80" x2="880" y2="170" gradientUnits="userSpaceOnUse">
      <stop offset="0" stop-color="#6E56F7"/>
      <stop offset="1" stop-color="#19A8C5"/>
    </linearGradient>
  </defs>

  <!-- Mark (scaled icon) -->
  <g transform="translate(24,24) scale(0.1875)">
    <rect x="0" y="0" width="896" height="896" rx="232" fill="url(#bgw)"/>
    <path fill="#FFFFFF"
          d="M448 148 C484 364 532 412 748 448 C532 484 484 532 448 748 C412 532 364 484 148 448 C364 412 412 364 448 148 Z"/>
    <path fill="#FFFFFF" fill-opacity="0.95"
          d="M696 166 C704.4 216.4 715.6 227.6 766 236 C715.6 244.4 704.4 255.6 696 306 C687.6 255.6 676.4 244.4 626 236 C676.4 227.6 687.6 216.4 696 166 Z"/>
  </g>

  <!-- Wordmark -->
  <text x="276" y="156" font-family="-apple-system, BlinkMacSystemFont, 'Segoe UI', Helvetica, Arial, sans-serif"
        font-size="132" font-weight="800" letter-spacing="-4" fill="url(#txt)">mac<tspan fill="#1F2440">cleanup</tspan></text>
</svg>
